<svg xmlns="http://www.w3.org/2000/svg" viewBox="0 0 170 252"><defs id="SvgjsDefs1001"></defs><g id="SvgjsG1007" featurekey="root" fill="#0f1d39"></g><g id="SvgjsG1008" featurekey="symbol1" fill="#fff" transform="matrix(0.2860565276412022,0,0,0.2860565276412022,50,0)"><g xmlns="http://www.w3.org/2000/svg"><path fill-rule="evenodd" clip-rule="evenodd" d="M66.719,250.246c10.056-2.388,23.136-2.497,29.022-13.188   C26.282,223.888,6.417,238.711,0,257.754c0.589,0.463,6.875-0.044,7.509,0c30.626,2.168,35.485,12.341,24.826,41.42   c-4.218,11.499-9.258,22.698-13.302,34.253c-8.798,25.136,0.335,45.965,17.955,68.556c-6.321-27.848,4.358-46.745,19.517-63.973   C79.834,311.491,86.736,282.901,66.719,250.246z"></path><path d="M102.867,285.896C127.406,167.838,55.878,0,55.878,0c52.328,28.221,86.364,63.887,104.847,99.895   c28.88,56.262,8.923,148.364,8.923,148.364c26.79-52.592,12.182-109.986,15.526-105.271c3.344,4.714,30.776,26.123,38.796,58.054   c13.768,54.831-28.454,119.63-28.454,119.63c22.456-20.259,38.813-73.074,38.813-73.074s13.472,15.801,9.717,53.429   c-5.446,54.58-63.969,81.744-63.969,81.744c10.325,2.578,45.537-19.664,45.537-19.664c-7.427,19.481-20.755,38.636-30.027,45.521   c-17.246,12.811-54.652,14.804-54.652,14.804c14.884,5.012,29.916,4.239,29.916,4.239c-34.292,31.525-82.289,11.78-82.289,11.78   c11.066,10.983,16.54,14.089,19.194,14.758c-12.016,4.858-37.757-2.215-53.315-21.482c-7.562-9.364-18.773-37.628-11.264-58.324   c8.092-22.301,20.65-35.746,33.791-45.153C83.801,324.356,99.703,301.122,102.867,285.896z"></path></g></g><g id="SvgjsG1009" featurekey="text1" fill="#fff" transform="matrix(4.17246171922807,0,0,4.17246171922807,7.496523366380115,118.85952888091228)"><path d="M8.32 10 l0 9.34 c0 3.58 -1.82 4.9 -4.16 4.9 c-1.58 0 -2.9 -0.74 -3.56 -1.9 l0.8 -0.84 c0.58 0.96 1.52 1.54 2.74 1.54 c1.74 0 2.94 -0.9 2.94 -3.8 l0 -9.24 l1.24 0 z M15.46 13.42 c1.84 0 3.36 0.94 4.04 2.4 l0 -2.22 l1.22 0 l0 10.4 l-1.22 0 l0 -2.22 c-0.68 1.48 -2.2 2.42 -4.04 2.42 c-2.34 0 -5.24 -1.8 -5.24 -5.38 s2.9 -5.4 5.24 -5.4 z M15.559999999999999 14.52 c-1.86 0 -4.14 1.4 -4.14 4.3 c0 2.88 2.28 4.28 4.14 4.28 c1.94 0 4 -1.36 4 -4.28 c0 -2.94 -2.06 -4.3 -4 -4.3 z M24.299999999999997 9.86 l0 1.14 l-1.22 0 l0 -1.14 l1.22 0 z M24.299999999999997 13.6 l0 10.4 l-1.22 0 l0 -10.4 l1.22 0 z M27.879999999999995 9.86 l0 14.14 l-1.22 0 l0 -14.14 l1.22 0 z M35.31999999999999 15.92 c-0.42 -0.88 -1.16 -1.48 -2.24 -1.48 c-1.16 0 -1.92 0.7 -1.92 1.62 c0 0.8 0.42 1.42 1.64 1.84 l0.96 0.34 c1.8 0.64 3.02 1.32 3.02 3.06 c0 1.94 -1.88 2.9 -3.56 2.9 c-1.76 0 -3.3 -1 -3.66 -2.72 l1 -0.28 c0.34 1.28 1.42 1.98 2.66 1.98 c1.14 0 2.36 -0.64 2.36 -1.86 c0 -1.08 -0.76 -1.62 -1.98 -2.04 l-1.16 -0.4 c-1.76 -0.62 -2.46 -1.64 -2.46 -2.8 c0 -1.56 1.34 -2.66 3.08 -2.66 c1.6 0 2.74 0.86 3.26 2.18 z"></path></g><g id="SvgjsG1010" featurekey="text3" fill="#fff" transform="matrix(0.6505932183000832,0,0,0.6505932183000832,-0.2602377371492143,228.58515109092463)"><path d="M12.56 24 l-1.58 -3.56 l-7.68 0 l-1.58 3.56 l-1.32 0 l6.26 -14 l0.96 0 l6.26 14 l-1.32 0 z M3.76 19.36 l6.76 0 l-3.38 -7.64 z  M35.92 10 l0 14 l-1.26 0 l0 -11.22 l-5.48 11.22 l-0.98 0 l-5.46 -11.22 l0 11.22 l-1.26 0 l0 -14 l1.24 0 l5.98 12.26 l5.98 -12.26 l1.24 0 z M43.10000000000001 13.42 c2.36 0 5.28 1.82 5.28 5.38 c0 3.6 -2.92 5.4 -5.28 5.4 s-5.28 -1.8 -5.28 -5.4 c0 -3.56 2.92 -5.38 5.28 -5.38 z M43.10000000000001 14.52 c-1.82 0 -4.08 1.4 -4.08 4.28 c0 2.9 2.26 4.3 4.08 4.3 s4.08 -1.4 4.08 -4.3 c0 -2.88 -2.26 -4.28 -4.08 -4.28 z M59.06 9.86 l1.22 0 l0 6.48 l0 7.66 l-1.22 0 l0 -2.22 c-0.68 1.48 -2.2 2.42 -4.04 2.42 c-2.34 0 -5.24 -1.8 -5.24 -5.38 s2.9 -5.4 5.24 -5.4 c1.84 0 3.36 0.94 4.04 2.4 l0 -5.96 z M55.120000000000005 23.1 c1.94 0 4 -1.36 4 -4.28 c0 -2.94 -2.06 -4.3 -4 -4.3 c-1.86 0 -4.14 1.4 -4.14 4.3 c0 2.88 2.28 4.28 4.14 4.28 z M67.44000000000001 13.42 c2.36 0 5.46 1.82 5.12 5.86 l-9.18 0 c0.22 2.58 2.24 3.84 4.3 3.84 c1.46 0 2.52 -0.42 3.32 -1.3 l0.74 0.66 c-0.94 1.18 -2.32 1.72 -4.08 1.72 c-2.68 0 -5.5 -1.82 -5.5 -5.4 c0 -3.56 2.92 -5.38 5.28 -5.38 z M67.44000000000001 14.5 c-1.72 0 -3.82 1.26 -4.06 3.8 l8.1 0 c-0.14 -2.54 -2.32 -3.8 -4.04 -3.8 z M79.64000000000001 13.44 c0.16 0 0.3 0 0.44 0.02 l0 1.16 c-0.16 -0.04 -0.3 -0.04 -0.42 -0.04 c-2 0 -3.64 1.44 -3.96 3.9 l0 5.52 l-1.22 0 l0 -10.4 l1.22 0 l0 2.78 c0.34 -1.52 1.82 -2.94 3.94 -2.94 z M86.96000000000001 13.44 c2.04 0 3.98 1.3 3.98 4.5 l0 6.06 l-1.2 0 l0 -6.06 c0 -2.34 -1.32 -3.4 -3 -3.4 c-1.98 0 -3.4 1.8 -3.66 3.22 l0 6.24 l-1.22 0 l0 -10.4 l1.22 0 l0 2.58 c0.2 -0.78 1.52 -2.74 3.88 -2.74 z  M106.16 10 l0 9.34 c0 3.58 -1.82 4.9 -4.16 4.9 c-1.58 0 -2.9 -0.74 -3.56 -1.9 l0.8 -0.84 c0.58 0.96 1.52 1.54 2.74 1.54 c1.74 0 2.94 -0.9 2.94 -3.8 l0 -9.24 l1.24 0 z M113.3 13.42 c1.84 0 3.36 0.94 4.04 2.4 l0 -2.22 l1.22 0 l0 10.4 l-1.22 0 l0 -2.22 c-0.68 1.48 -2.2 2.42 -4.04 2.42 c-2.34 0 -5.24 -1.8 -5.24 -5.38 s2.9 -5.4 5.24 -5.4 z M113.4 14.52 c-1.86 0 -4.14 1.4 -4.14 4.3 c0 2.88 2.28 4.28 4.14 4.28 c1.94 0 4 -1.36 4 -4.28 c0 -2.94 -2.06 -4.3 -4 -4.3 z M130.44 13.6 l-4.64 10.4 l-0.94 0 l-4.62 -10.4 l1.24 0 l3.86 8.7 l3.86 -8.7 l1.24 0 z M136.88 13.42 c1.84 0 3.36 0.94 4.04 2.4 l0 -2.22 l1.22 0 l0 10.4 l-1.22 0 l0 -2.22 c-0.68 1.48 -2.2 2.42 -4.04 2.42 c-2.34 0 -5.24 -1.8 -5.24 -5.38 s2.9 -5.4 5.24 -5.4 z M136.98 14.52 c-1.86 0 -4.14 1.4 -4.14 4.3 c0 2.88 2.28 4.28 4.14 4.28 c1.94 0 4 -1.36 4 -4.28 c0 -2.94 -2.06 -4.3 -4 -4.3 z M149.57999999999998 15.92 c-0.42 -0.88 -1.16 -1.48 -2.24 -1.48 c-1.16 0 -1.92 0.7 -1.92 1.62 c0 0.8 0.42 1.42 1.64 1.84 l0.96 0.34 c1.8 0.64 3.02 1.32 3.02 3.06 c0 1.94 -1.88 2.9 -3.56 2.9 c-1.76 0 -3.3 -1 -3.66 -2.72 l1 -0.28 c0.34 1.28 1.42 1.98 2.66 1.98 c1.14 0 2.36 -0.64 2.36 -1.86 c0 -1.08 -0.76 -1.62 -1.98 -2.04 l-1.16 -0.4 c-1.76 -0.62 -2.46 -1.64 -2.46 -2.8 c0 -1.56 1.34 -2.66 3.08 -2.66 c1.6 0 2.74 0.86 3.26 2.18 z M157.66 13.42 c1.86 0 3.52 0.88 4.4 2.56 l-1 0.4 c-0.7 -1.2 -1.94 -1.86 -3.4 -1.86 c-1.86 0 -4.12 1.4 -4.12 4.3 c0 2.88 2.26 4.28 4.12 4.28 c1.46 0 2.7 -0.66 3.4 -1.86 l1 0.4 c-0.88 1.68 -2.54 2.56 -4.4 2.56 c-2.4 0 -5.32 -1.8 -5.32 -5.38 s2.92 -5.4 5.32 -5.4 z M169 13.44 c0.16 0 0.3 0 0.44 0.02 l0 1.16 c-0.16 -0.04 -0.3 -0.04 -0.42 -0.04 c-2 0 -3.64 1.44 -3.96 3.9 l0 5.52 l-1.22 0 l0 -10.4 l1.22 0 l0 2.78 c0.34 -1.52 1.82 -2.94 3.94 -2.94 z M172.44 9.86 l0 1.14 l-1.22 0 l0 -1.14 l1.22 0 z M172.44 13.6 l0 10.4 l-1.22 0 l0 -10.4 l1.22 0 z M180.06 13.42 c2.34 0 5.24 1.82 5.24 5.4 s-2.9 5.38 -5.24 5.38 c-1.84 0 -3.36 -0.94 -4.04 -2.42 l0 6.02 l-1.22 0 l0 -6.64 l0 -7.56 l1.22 0 l0 2.22 c0.68 -1.46 2.2 -2.4 4.04 -2.4 z M179.96 23.1 c1.86 0 4.14 -1.4 4.14 -4.28 c0 -2.9 -2.28 -4.3 -4.14 -4.3 c-1.94 0 -4 1.36 -4 4.3 c0 2.92 2.06 4.28 4 4.28 z M191.42 14.64 l-2.18 0 l0 7.42 c0 0.64 0.28 0.98 0.82 0.98 c0.52 0 0.9 -0.14 1.34 -0.36 l0 1.06 c-0.44 0.24 -0.9 0.38 -1.66 0.38 c-0.88 0 -1.72 -0.46 -1.72 -1.9 l0 -7.58 l-1.42 0 l0 -1.04 l1.42 0 l0 -2.44 l1.22 0 l0 2.44 l2.18 0 l0 1.04 z  M200.56 22.82 l6.54 0 l0 1.18 l-7.78 0 l0 -14 l1.24 0 l0 12.82 z M210.3 9.86 l0 1.14 l-1.22 0 l0 -1.14 l1.22 0 z M210.3 13.6 l0 10.4 l-1.22 0 l0 -10.4 l1.22 0 z M217.92000000000002 13.42 c2.34 0 5.24 1.82 5.24 5.4 s-2.9 5.38 -5.24 5.38 c-1.84 0 -3.36 -0.94 -4.04 -2.42 l0 2.22 l-1.22 0 l0 -10.4 l0 -3.74 l1.22 0 l0 5.96 c0.68 -1.46 2.2 -2.4 4.04 -2.4 z M217.82000000000002 23.1 c1.86 0 4.14 -1.4 4.14 -4.28 c0 -2.9 -2.28 -4.3 -4.14 -4.3 c-1.94 0 -4 1.36 -4 4.3 c0 2.92 2.06 4.28 4 4.28 z M230.20000000000002 13.44 c0.16 0 0.3 0 0.44 0.02 l0 1.16 c-0.16 -0.04 -0.3 -0.04 -0.42 -0.04 c-2 0 -3.64 1.44 -3.96 3.9 l0 5.52 l-1.22 0 l0 -10.4 l1.22 0 l0 2.78 c0.34 -1.52 1.82 -2.94 3.94 -2.94 z M237.18 13.42 c1.84 0 3.36 0.94 4.04 2.4 l0 -2.22 l1.22 0 l0 10.4 l-1.22 0 l0 -2.22 c-0.68 1.48 -2.2 2.42 -4.04 2.42 c-2.34 0 -5.24 -1.8 -5.24 -5.38 s2.9 -5.4 5.24 -5.4 z M237.28 14.52 c-1.86 0 -4.14 1.4 -4.14 4.3 c0 2.88 2.28 4.28 4.14 4.28 c1.94 0 4 -1.36 4 -4.28 c0 -2.94 -2.06 -4.3 -4 -4.3 z M249.96 13.44 c0.16 0 0.3 0 0.44 0.02 l0 1.16 c-0.16 -0.04 -0.3 -0.04 -0.42 -0.04 c-2 0 -3.64 1.44 -3.96 3.9 l0 5.52 l-1.22 0 l0 -10.4 l1.22 0 l0 2.78 c0.34 -1.52 1.82 -2.94 3.94 -2.94 z M260.46 13.6 l1.24 0 l-6.32 14.2 l-1.22 0 l1.82 -4.1 l-4.48 -10.1 l1.24 0 l3.86 8.7 z"></path></g></svg>