<?xml version="1.0" encoding="UTF-8"?>
<svg width="70px" height="131px" viewBox="0 0 70 131" version="1.1" xmlns="http://www.w3.org/2000/svg" xmlns:xlink="http://www.w3.org/1999/xlink">
    <!-- Generator: Sketch 54.1 (76490) - https://sketchapp.com -->
    <title>SvgjsG1008</title>
    <desc>Created with Sketch.</desc>
    <g id="Page-1" stroke="none" stroke-width="1" fill="none" fill-rule="evenodd">
        <g id="logo" fill="#2255AA" fill-rule="nonzero">
            <g id="SvgjsG1008">
                <g id="Group">
                    <path d="M19.0854055,71.5845018 C21.9619899,70.9013988 25.7036093,70.8702187 27.387338,67.8119883 C7.51813766,64.0446239 1.83562474,68.2848398 0,73.7322142 C0.168487295,73.8646584 1.96663863,73.7196277 2.14799847,73.7322142 C10.9087657,74.3523848 12.2987143,77.2624378 9.24963782,85.5806756 C8.04305139,88.8700396 6.60132649,92.0735867 5.44451389,95.3789698 C2.92778856,102.569287 5.54034283,108.527558 10.5806588,114.989861 C8.77249553,107.023759 11.8272932,101.618149 16.1636241,96.6899669 C22.8370368,89.1040339 24.811399,80.9256777 19.0854055,71.5845018 Z" id="Path"></path>
                    <path d="M29.4257768,81.782417 C36.445318,48.0111555 15.9842667,0 15.9842667,0 C30.9530326,8.07280127 40.6892526,18.2752934 45.9764354,28.5756168 C54.2377479,44.6697292 48.5289178,71.0161075 48.5289178,71.0161075 C56.1923722,55.9718226 52.0136584,39.5538942 52.9702314,40.9026508 C53.9268045,42.2511212 61.7739071,48.3753054 64.0680805,57.5093764 C68.0065068,73.1941419 55.9286281,91.7303188 55.9286281,91.7303188 C62.3523134,85.9350996 67.0313401,70.8270241 67.0313401,70.8270241 C67.0313401,70.8270241 70.8850936,75.3470033 69.8109513,86.1107383 C68.2530875,101.723704 51.5122013,109.494143 51.5122013,109.494143 C54.465735,110.231597 64.5383574,103.869128 64.5383574,103.869128 C62.4138156,109.441795 58.6012542,114.921208 55.9489381,116.890707 C51.0156072,120.555377 40.3153767,121.125488 40.3153767,121.125488 C44.5730421,122.559203 48.8730438,122.338081 48.8730438,122.338081 C39.0635934,131.356013 25.3337382,125.707827 25.3337382,125.707827 C28.4992397,128.849586 30.0651132,129.738078 30.8243072,129.929449 C27.387052,131.319112 20.0236709,129.295834 15.5732034,123.784383 C13.410044,121.10575 10.2030642,113.020648 12.3510627,107.100422 C14.6658321,100.721075 18.25813,96.8750455 22.0171988,94.1841117 C23.9718231,92.7841511 28.520694,86.1379137 29.4257768,81.782417 Z" id="Path"></path>
                </g>
            </g>
        </g>
    </g>
</svg>