<?xml version="1.0" encoding="UTF-8"?>
<svg width="94px" height="124px" viewBox="0 0 94 124" version="1.1" xmlns="http://www.w3.org/2000/svg" xmlns:xlink="http://www.w3.org/1999/xlink">
    <title>logo</title>
    <defs>
        <linearGradient x1="0%" y1="0%" x2="100%" y2="0%" id="linearGradient-1">
            <stop stop-color="#2D388A" offset="0%"></stop>
            <stop stop-color="#00AEEF" offset="100%"></stop>
        </linearGradient>
        <linearGradient x1="0%" y1="0%" x2="100%" y2="0%" id="linearGradient-2">
            <stop stop-color="#2D388A" offset="0%"></stop>
            <stop stop-color="#00AEEF" offset="100%"></stop>
        </linearGradient>
    </defs>
    <g id="Page-1" stroke="none" stroke-width="1" fill="none" fill-rule="evenodd">
        <g id="logo" fill-rule="nonzero">
            <g id="SvgjsG1008" transform="translate(12.000000, 0.000000)">
                <g id="SvgjsG1009">
                    <g id="Group" transform="translate(0.194727, 0.886526)">
                        <path d="M0.244508781,35.2445089 L8.13267043,43.1877401 L43.1348733,7.94543398 L35.2445088,0.00220278181 L0.244508781,35.2445089 Z M8.13267043,41.6259678 L1.79746995,35.2445089 L35.2445089,1.56397508 L41.5819122,7.94543398 L8.13267043,41.6259678 Z" id="Shape" fill="url(#linearGradient-1)"></path>
                        <path d="M13.800428,48.8951478 L21.6907925,56.8361762 L56.6885898,21.5938701 L48.7982254,13.6506389 L13.800428,48.8951478 Z M21.6907925,55.2744039 L15.3533892,48.8951478 L48.7982254,15.2124112 L55.1356286,21.5938701 L21.6907925,55.2744039 Z" id="Shape" fill="url(#linearGradient-2)"></path>
                        <path d="M70.244509,35.2445089 L62.3563474,27.3034805 L27.3541445,62.5457866 L35.2445089,70.4890178 L70.244509,35.2445089 Z M62.3563474,28.86305 L68.6915479,35.2445089 L35.2445089,68.9272455 L28.9071057,62.5457866 L62.3563474,28.86305 Z" id="Shape" fill="url(#linearGradient-1)"></path>
                    </g>
                </g>
            </g>
            <g id="SvgjsG1010" transform="translate(0.000000, 87.000000)" fill="#000000">
                <path d="M20.3475898,0.938802787 L20.3475898,24.3212785 C20.3475898,33.2837263 15.6693145,36.588316 9.65438914,36.588316 C5.59302922,36.588316 2.19999442,34.735743 0.503477,31.8317096 L2.55986175,29.7287889 C4.05074068,32.1321268 6.46699274,33.5841435 9.60297948,33.5841435 C14.0756163,33.5841435 17.1601934,31.3310142 17.1601934,24.0709307 L17.1601934,0.938802787 L20.3475898,0.938802787 Z M38.7008236,9.5006943 C43.4305085,9.5006943 47.3376396,11.8539627 49.0855665,15.5090392 L49.0855665,9.95132017 L52.2215533,9.95132017 L52.2215533,35.9874815 L49.0855665,35.9874815 L49.0855665,30.4297625 C47.3376396,34.1349085 43.4305085,36.4881769 38.7008236,36.4881769 C32.6858983,36.4881769 25.2315036,31.9819182 25.2315036,23.0194704 C25.2315036,14.0570225 32.6858983,9.5006943 38.7008236,9.5006943 L38.7008236,9.5006943 Z M38.9578717,12.2545191 C34.1767772,12.2545191 28.3160806,15.7593869 28.3160806,23.0194704 C28.3160806,30.2294843 34.1767772,33.7343521 38.9578717,33.7343521 C43.9446047,33.7343521 49.2397954,30.3296234 49.2397954,23.0194704 C49.2397954,15.6592478 43.9446047,12.2545191 38.9578717,12.2545191 Z M61.4238752,0.588316 L61.4238752,3.44227984 L58.2878883,3.44227984 L58.2878883,0.588316 L61.4238752,0.588316 Z M61.4238752,9.95132017 L61.4238752,35.9874815 L58.2878883,35.9874815 L58.2878883,9.95132017 L61.4238752,9.95132017 Z M70.6261969,0.588316 L70.6261969,35.9874815 L67.4902097,35.9874815 L67.4902097,0.588316 L70.6261969,0.588316 Z M89.7505749,15.7593869 C88.6709729,13.5563271 86.7688168,12.0542409 83.9926978,12.0542409 C81.0109397,12.0542409 79.0573741,13.8066749 79.0573741,16.1098737 C79.0573741,18.1126554 80.1369761,19.6648111 83.2729627,20.7162715 L85.7406248,21.5674537 C90.3674904,23.169679 93.503477,24.8720434 93.503477,29.2280934 C93.503477,34.084839 88.6709729,36.4881769 84.3525647,36.4881769 C79.8285187,36.4881769 75.8699781,33.9846999 74.9446045,29.6787194 L77.5150856,28.9777458 C78.3890491,32.1821964 81.1651687,33.9346303 84.3525647,33.9346303 C87.2829134,33.9346303 90.4188999,32.332405 90.4188999,29.278163 C90.4188999,26.5744078 88.4653344,25.2225302 85.3293478,24.1710698 L82.3475897,23.169679 C77.8235436,21.6175232 76.0242065,19.0639767 76.0242065,16.1599433 C76.0242065,12.2545191 79.4686511,9.5006943 83.9412877,9.5006943 C88.0540573,9.5006943 90.984406,11.6536846 92.321056,14.9582742 L89.7505749,15.7593869 Z" id="Shape"></path>
            </g>
        </g>
    </g>
</svg>