<?xml version="1.0" encoding="UTF-8"?>
<svg width="94px" height="138px" viewBox="0 0 94 138" version="1.1" xmlns="http://www.w3.org/2000/svg" xmlns:xlink="http://www.w3.org/1999/xlink">
    <!-- Generator: Sketch 55.2 (78181) - https://sketchapp.com -->
    <title>jails-logo</title>
    <desc>Created with Sketch.</desc>
    <defs>
        <linearGradient x1="0%" y1="0%" x2="100%" y2="0%" id="linearGradient-1">
            <stop stop-color="#2D388A" offset="0%"></stop>
            <stop stop-color="#00AEEF" offset="100%"></stop>
        </linearGradient>
        <linearGradient x1="0%" y1="0%" x2="100%" y2="0%" id="linearGradient-2">
            <stop stop-color="#2D388A" offset="0%"></stop>
            <stop stop-color="#00AEEF" offset="100%"></stop>
        </linearGradient>
    </defs>
    <g id="Page-1" stroke="none" stroke-width="1" fill="none" fill-rule="evenodd">
        <g id="jails-logo" fill-rule="nonzero">
            <g id="SvgjsG1008" transform="translate(12.000000, 0.000000)">
                <g id="SvgjsG1009">
                    <g id="Group" transform="translate(0.194727, 0.886526)">
                        <path d="M0.244508781,35.2445089 L8.13267043,43.1877401 L43.1348733,7.94543398 L35.2445088,0.00220278181 L0.244508781,35.2445089 Z M8.13267043,41.6259678 L1.79746995,35.2445089 L35.2445089,1.56397508 L41.5819122,7.94543398 L8.13267043,41.6259678 Z" id="Shape" fill="url(#linearGradient-1)"></path>
                        <path d="M13.800428,48.8951478 L21.6907925,56.8361762 L56.6885898,21.5938701 L48.7982254,13.6506389 L13.800428,48.8951478 Z M21.6907925,55.2744039 L15.3533892,48.8951478 L48.7982254,15.2124112 L55.1356286,21.5938701 L21.6907925,55.2744039 Z" id="Shape" fill="url(#linearGradient-2)"></path>
                        <path d="M70.244509,35.2445089 L62.3563474,27.3034805 L27.3541445,62.5457866 L35.2445089,70.4890178 L70.244509,35.2445089 Z M62.3563474,28.86305 L68.6915479,35.2445089 L35.2445089,68.9272455 L28.9071057,62.5457866 L62.3563474,28.86305 Z" id="Shape" fill="url(#linearGradient-1)"></path>
                    </g>
                </g>
            </g>
            <g id="SvgjsG1010" transform="translate(0.000000, 87.000000)" fill="#000000">
                <path d="M20.3475898,0.938802787 L20.3475898,24.3212785 C20.3475898,33.2837263 15.6693145,36.588316 9.65438914,36.588316 C5.59302922,36.588316 2.19999442,34.735743 0.503477,31.8317096 L2.55986175,29.7287889 C4.05074068,32.1321268 6.46699274,33.5841435 9.60297948,33.5841435 C14.0756163,33.5841435 17.1601934,31.3310142 17.1601934,24.0709307 L17.1601934,0.938802787 L20.3475898,0.938802787 Z M38.7008236,9.5006943 C43.4305085,9.5006943 47.3376396,11.8539627 49.0855665,15.5090392 L49.0855665,9.95132017 L52.2215533,9.95132017 L52.2215533,35.9874815 L49.0855665,35.9874815 L49.0855665,30.4297625 C47.3376396,34.1349085 43.4305085,36.4881769 38.7008236,36.4881769 C32.6858983,36.4881769 25.2315036,31.9819182 25.2315036,23.0194704 C25.2315036,14.0570225 32.6858983,9.5006943 38.7008236,9.5006943 L38.7008236,9.5006943 Z M38.9578717,12.2545191 C34.1767772,12.2545191 28.3160806,15.7593869 28.3160806,23.0194704 C28.3160806,30.2294843 34.1767772,33.7343521 38.9578717,33.7343521 C43.9446047,33.7343521 49.2397954,30.3296234 49.2397954,23.0194704 C49.2397954,15.6592478 43.9446047,12.2545191 38.9578717,12.2545191 Z M61.4238752,0.588316 L61.4238752,3.44227984 L58.2878883,3.44227984 L58.2878883,0.588316 L61.4238752,0.588316 Z M61.4238752,9.95132017 L61.4238752,35.9874815 L58.2878883,35.9874815 L58.2878883,9.95132017 L61.4238752,9.95132017 Z M70.6261969,0.588316 L70.6261969,35.9874815 L67.4902097,35.9874815 L67.4902097,0.588316 L70.6261969,0.588316 Z M89.7505749,15.7593869 C88.6709729,13.5563271 86.7688168,12.0542409 83.9926978,12.0542409 C81.0109397,12.0542409 79.0573741,13.8066749 79.0573741,16.1098737 C79.0573741,18.1126554 80.1369761,19.6648111 83.2729627,20.7162715 L85.7406248,21.5674537 C90.3674904,23.169679 93.503477,24.8720434 93.503477,29.2280934 C93.503477,34.084839 88.6709729,36.4881769 84.3525647,36.4881769 C79.8285187,36.4881769 75.8699781,33.9846999 74.9446045,29.6787194 L77.5150856,28.9777458 C78.3890491,32.1821964 81.1651687,33.9346303 84.3525647,33.9346303 C87.2829134,33.9346303 90.4188999,32.332405 90.4188999,29.278163 C90.4188999,26.5744078 88.4653344,25.2225302 85.3293478,24.1710698 L82.3475897,23.169679 C77.8235436,21.6175232 76.0242065,19.0639767 76.0242065,16.1599433 C76.0242065,12.2545191 79.4686511,9.5006943 83.9412877,9.5006943 C88.0540573,9.5006943 90.984406,11.6536846 92.321056,14.9582742 L89.7505749,15.7593869 Z" id="Shape"></path>
            </g>
            <g id="SvgjsG1011" transform="translate(5.000000, 132.000000)" fill="#000000">
                <path d="M4.00214314,4.72909699 L3.48212783,3.53846154 L0.954458478,3.53846154 L0.434443172,4.72909699 L0,4.72909699 L2.06031382,0.0468227422 L2.37627249,0.0468227422 L4.43658631,4.72909699 L4.00214314,4.72909699 Z M1.10585534,3.17725753 L3.33073097,3.17725753 L2.21829315,0.622073577 L1.10585534,3.17725753 Z M11.6904707,0.0468227422 L11.6904707,4.72909699 L11.275775,4.72909699 L11.275775,0.976588631 L9.47217758,4.72909699 L9.14963647,4.72909699 L7.35262153,0.976588631 L7.35262153,4.72909699 L6.93792575,4.72909699 L6.93792575,0.0468227422 L7.34603904,0.0468227422 L9.31419827,4.14715719 L11.2823575,0.0468227422 L11.6904707,0.0468227422 Z M14.0535783,1.19063545 C14.83031,1.19063545 15.791351,1.7993311 15.791351,2.98996656 C15.791351,4.19397994 14.83031,4.79598662 14.0535783,4.79598662 C13.2768465,4.79598662 12.3158056,4.19397994 12.3158056,2.98996656 C12.3158056,1.7993311 13.2768465,1.19063545 14.0535783,1.19063545 L14.0535783,1.19063545 Z M14.0535783,1.55852843 C13.4545733,1.55852843 12.710754,2.02675585 12.710754,2.98996656 C12.710754,3.95986622 13.4545733,4.42809365 14.0535783,4.42809365 C14.6525833,4.42809365 15.3964026,3.95986622 15.3964026,2.98996656 C15.3964026,2.02675585 14.6525833,1.55852843 14.0535783,1.55852843 Z M19.3063912,0 L19.707922,0 L19.707922,2.16722408 L19.707922,4.72909699 L19.3063912,4.72909699 L19.3063912,3.98662207 C19.0825871,4.48160535 18.5823192,4.79598662 17.9767318,4.79598662 C17.2065825,4.79598662 16.252124,4.19397994 16.252124,2.99665552 C16.252124,1.7993311 17.2065825,1.19063545 17.9767318,1.19063545 C18.5823192,1.19063545 19.0825871,1.50501672 19.3063912,1.99331104 L19.3063912,0 L19.3063912,0 Z M18.0096441,4.42809365 C18.6481439,4.42809365 19.3261386,3.97324415 19.3261386,2.99665552 C19.3261386,2.01337793 18.6481439,1.55852843 18.0096441,1.55852843 C17.3974742,1.55852843 16.6470724,2.02675585 16.6470724,2.99665552 C16.6470724,3.95986622 17.3974742,4.42809365 18.0096441,4.42809365 Z M22.064447,1.19063545 C22.8411787,1.19063545 23.8614619,1.7993311 23.7495599,3.15050167 L20.7282052,3.15050167 C20.8006124,4.01337793 21.4654421,4.43478261 22.1434367,4.43478261 C22.6239572,4.43478261 22.9728282,4.29431438 23.2361271,4 L23.4796786,4.22073579 C23.1703024,4.61538462 22.7161118,4.79598662 22.1368542,4.79598662 C21.2548029,4.79598662 20.3266743,4.18729097 20.3266743,2.98996656 C20.3266743,1.7993311 21.2877153,1.19063545 22.064447,1.19063545 Z M22.064447,1.55183946 C21.4983544,1.55183946 20.8071948,1.97324415 20.7282052,2.82274248 L23.3941064,2.82274248 C23.3480291,1.97324415 22.6305397,1.55183946 22.064447,1.55183946 L22.064447,1.55183946 Z M26.0797551,1.19732442 C26.1324149,1.19732442 26.1784922,1.19732442 26.2245695,1.20401338 L26.2245695,1.59197325 C26.1719097,1.57859532 26.1258324,1.57859532 26.0863376,1.57859532 C25.4280903,1.57859532 24.8883276,2.06020067 24.7830081,2.88294315 L24.7830081,4.72909699 L24.3814773,4.72909699 L24.3814773,1.25083612 L24.7830081,1.25083612 L24.7830081,2.18060201 C24.8949101,1.6722408 25.3820131,1.19732442 26.0797551,1.19732442 Z M28.48894,1.19732442 C29.1603521,1.19732442 29.7988519,1.63210702 29.7988519,2.70234114 L29.7988519,4.72909699 L29.4039036,4.72909699 L29.4039036,2.70234114 C29.4039036,1.91973244 28.9694604,1.56521739 28.4165328,1.56521739 C27.764868,1.56521739 27.2975125,2.16722408 27.2119403,2.64214047 L27.2119403,4.72909699 L26.8104096,4.72909699 L26.8104096,1.25083612 L27.2119403,1.25083612 L27.2119403,2.11371238 C27.277765,1.85284281 27.7122082,1.19732442 28.48894,1.19732442 Z M34.8081133,0.0468227422 L34.8081133,3.17056856 C34.8081133,4.36789298 34.2091084,4.80936455 33.4389591,4.80936455 C32.9189438,4.80936455 32.4845006,4.56187291 32.267279,4.17391304 L32.5305779,3.89297659 C32.7214696,4.21404683 33.0308458,4.40802675 33.4323766,4.40802675 C34.0050517,4.40802675 34.4000001,4.10702341 34.4000001,3.13712375 L34.4000001,0.0468227422 L34.8081133,0.0468227422 L34.8081133,0.0468227422 Z M37.1580559,1.19063545 C37.7636434,1.19063545 38.2639112,1.50501672 38.4877153,1.99331104 L38.4877153,1.25083612 L38.8892461,1.25083612 L38.8892461,4.72909699 L38.4877153,4.72909699 L38.4877153,3.98662207 C38.2639112,4.48160535 37.7636434,4.79598662 37.1580559,4.79598662 C36.3879067,4.79598662 35.4334482,4.19397994 35.4334482,2.99665552 C35.4334482,1.7993311 36.3879067,1.19063545 37.1580559,1.19063545 L37.1580559,1.19063545 Z M37.1909683,1.55852843 C36.5787984,1.55852843 35.8283965,2.02675585 35.8283965,2.99665552 C35.8283965,3.95986622 36.5787984,4.42809365 37.1909683,4.42809365 C37.8294681,4.42809365 38.5074627,3.97324415 38.5074627,2.99665552 C38.5074627,2.01337793 37.8294681,1.55852843 37.1909683,1.55852843 Z M42.7992347,1.25083612 L41.2721011,4.72909699 L40.9627249,4.72909699 L39.4421738,1.25083612 L39.8502871,1.25083612 L41.1207042,4.16053512 L42.3911214,1.25083612 L42.7992347,1.25083612 Z M44.9187907,1.19063545 C45.5243781,1.19063545 46.024646,1.50501672 46.2484501,1.99331104 L46.2484501,1.25083612 L46.6499809,1.25083612 L46.6499809,4.72909699 L46.2484501,4.72909699 L46.2484501,3.98662207 C46.024646,4.48160535 45.5243781,4.79598662 44.9187907,4.79598662 C44.1486415,4.79598662 43.194183,4.19397994 43.194183,2.99665552 C43.194183,1.7993311 44.1486415,1.19063545 44.9187907,1.19063545 L44.9187907,1.19063545 Z M44.9517031,1.55852843 C44.3395332,1.55852843 43.5891313,2.02675585 43.5891313,2.99665552 C43.5891313,3.95986622 44.3395332,4.42809365 44.9517031,4.42809365 C45.5902029,4.42809365 46.2681975,3.97324415 46.2681975,2.99665552 C46.2681975,2.01337793 45.5902029,1.55852843 44.9517031,1.55852843 Z M49.0986606,2.02675585 C48.9604287,1.73244147 48.7168772,1.53177258 48.3614237,1.53177258 C47.9796403,1.53177258 47.7295064,1.76588629 47.7295064,2.0735786 C47.7295064,2.34113713 47.8677383,2.54849498 48.2692691,2.68896321 L48.5852278,2.80267559 C49.1776503,3.01672241 49.5791811,3.24414716 49.5791811,3.82608696 C49.5791811,4.47491639 48.9604287,4.79598662 48.407501,4.79598662 C47.8282435,4.79598662 47.3213931,4.46153846 47.2029086,3.88628762 L47.5320322,3.79264214 C47.6439343,4.22073579 47.9993877,4.4548495 48.407501,4.4548495 C48.7827019,4.4548495 49.1842327,4.24080268 49.1842327,3.83277592 C49.1842327,3.47157191 48.9340988,3.2909699 48.532568,3.15050167 L48.1507846,3.01672241 C47.5715271,2.80936455 47.3411405,2.46822743 47.3411405,2.08026756 C47.3411405,1.55852843 47.7821661,1.19063545 48.3548412,1.19063545 C48.881439,1.19063545 49.2566399,1.47826087 49.4277842,1.91973244 L49.0986606,2.02675585 Z M51.7579795,1.19063545 C52.3701492,1.19063545 52.9164946,1.48494983 53.2061233,2.04682274 L52.8769998,2.18060201 C52.6466129,1.77926422 52.2384999,1.55852843 51.7579795,1.55852843 C51.1458093,1.55852843 50.4019901,2.02675585 50.4019901,2.99665552 C50.4019901,3.95986622 51.1458093,4.42809365 51.7579795,4.42809365 C52.2384999,4.42809365 52.6466129,4.20735786 52.8769998,3.80602007 L53.2061233,3.93979933 C52.9164946,4.50167224 52.3701492,4.79598662 51.7579795,4.79598662 C50.9680827,4.79598662 50.0070418,4.19397994 50.0070418,2.99665552 C50.0070418,1.7993311 50.9680827,1.19063545 51.7579795,1.19063545 Z M55.4902412,1.19732442 C55.5429011,1.19732442 55.5889783,1.19732442 55.6350556,1.20401338 L55.6350556,1.59197325 C55.5823958,1.57859532 55.5363185,1.57859532 55.4968238,1.57859532 C54.8385763,1.57859532 54.2988135,2.06020067 54.1934943,2.88294315 L54.1934943,4.72909699 L53.7919634,4.72909699 L53.7919634,1.25083612 L54.1934943,1.25083612 L54.1934943,2.18060201 C54.305396,1.6722408 54.792499,1.19732442 55.4902412,1.19732442 Z M56.6224266,1.38777878e-17 L56.6224266,0.381270905 L56.2208957,0.381270905 L56.2208957,1.38777878e-17 L56.6224266,1.38777878e-17 Z M56.6224266,1.25083612 L56.6224266,4.72909699 L56.2208957,4.72909699 L56.2208957,1.25083612 L56.6224266,1.25083612 Z M59.1303484,1.19063545 C59.9004976,1.19063545 60.8549559,1.7993311 60.8549559,2.99665552 C60.8549559,4.19397994 59.9004976,4.79598662 59.1303484,4.79598662 C58.5247607,4.79598662 58.0244932,4.48160535 57.8006888,3.98662207 L57.8006888,6 L57.3991584,6 L57.3991584,3.77926421 L57.3991584,1.25083612 L57.8006888,1.25083612 L57.8006888,1.99331104 C58.0244932,1.50501672 58.5247607,1.19063545 59.1303484,1.19063545 Z M59.0974362,4.42809365 C59.7096059,4.42809365 60.4600075,3.95986622 60.4600075,2.99665552 C60.4600075,2.02675585 59.7096059,1.55852843 59.0974362,1.55852843 C58.4589363,1.55852843 57.7809417,2.01337793 57.7809417,2.99665552 C57.7809417,3.97324415 58.4589363,4.42809365 59.0974362,4.42809365 Z M62.8691927,1.59866221 L62.1517033,1.59866221 L62.1517033,4.08026756 C62.1517033,4.29431438 62.2438579,4.40802675 62.4215844,4.40802675 C62.592729,4.40802675 62.7177957,4.36120401 62.8626101,4.28762542 L62.8626101,4.64214047 C62.7177957,4.72240803 62.5663988,4.76923077 62.3162648,4.76923077 C62.026636,4.76923077 61.7501723,4.61538462 61.7501723,4.13377927 L61.7501723,1.59866221 L61.282817,1.59866221 L61.282817,1.25083612 L61.7501723,1.25083612 L61.7501723,0.434782608 L62.1517033,0.434782608 L62.1517033,1.25083612 L62.8691927,1.25083612 L62.8691927,1.59866221 Z M65.8773825,4.33444816 L68.0298511,4.33444816 L68.0298511,4.72909699 L65.469269,4.72909699 L65.469269,0.0468227422 L65.8773825,0.0468227422 L65.8773825,4.33444816 Z M69.0830465,1.38777878e-17 L69.0830465,0.381270905 L68.6815156,0.381270905 L68.6815156,1.38777878e-17 L69.0830465,1.38777878e-17 Z M69.0830465,1.25083612 L69.0830465,4.72909699 L68.6815156,4.72909699 L68.6815156,1.25083612 L69.0830465,1.25083612 Z M71.5909683,1.19063545 C72.3611175,1.19063545 73.3155763,1.7993311 73.3155763,2.99665552 C73.3155763,4.19397994 72.3611175,4.79598662 71.5909683,4.79598662 C70.9853811,4.79598662 70.485113,4.48160535 70.2613092,3.98662207 L70.2613092,4.72909699 L69.8597782,4.72909699 L69.8597782,1.25083612 L69.8597782,0 L70.2613092,0 L70.2613092,1.99331104 C70.485113,1.50501672 70.9853811,1.19063545 71.5909683,1.19063545 Z M71.5580561,4.42809365 C72.1702258,4.42809365 72.9206279,3.95986622 72.9206279,2.99665552 C72.9206279,2.02675585 72.1702258,1.55852843 71.5580561,1.55852843 C70.9195562,1.55852843 70.2415616,2.01337793 70.2415616,2.99665552 C70.2415616,3.97324415 70.9195562,4.42809365 71.5580561,4.42809365 Z M75.6326064,1.19732442 C75.6852662,1.19732442 75.7313435,1.19732442 75.7774208,1.20401338 L75.7774208,1.59197325 C75.7247609,1.57859532 75.6786837,1.57859532 75.6391889,1.57859532 C74.9809414,1.57859532 74.4411786,2.06020067 74.3358595,2.88294315 L74.3358595,4.72909699 L73.9343285,4.72909699 L73.9343285,1.25083612 L74.3358595,1.25083612 L74.3358595,2.18060201 C74.4477612,1.6722408 74.9348641,1.19732442 75.6326064,1.19732442 Z M77.9298894,1.19063545 C78.5354766,1.19063545 79.0357446,1.50501672 79.2595485,1.99331104 L79.2595485,1.25083612 L79.6610794,1.25083612 L79.6610794,4.72909699 L79.2595485,4.72909699 L79.2595485,3.98662207 C79.0357446,4.48160535 78.5354766,4.79598662 77.9298894,4.79598662 C77.1597397,4.79598662 76.2052814,4.19397994 76.2052814,2.99665552 C76.2052814,1.7993311 77.1597397,1.19063545 77.9298894,1.19063545 L77.9298894,1.19063545 Z M77.9628016,1.55852843 C77.3506313,1.55852843 76.6002298,2.02675585 76.6002298,2.99665552 C76.6002298,3.95986622 77.3506313,4.42809365 77.9628016,4.42809365 C78.6013015,4.42809365 79.2792961,3.97324415 79.2792961,2.99665552 C79.2792961,2.01337793 78.6013015,1.55852843 77.9628016,1.55852843 Z M82.136089,1.19732442 C82.1887488,1.19732442 82.2348261,1.19732442 82.2809034,1.20401338 L82.2809034,1.59197325 C82.2282435,1.57859532 82.1821663,1.57859532 82.1426715,1.57859532 C81.484424,1.57859532 80.9446612,2.06020067 80.8393421,2.88294315 L80.8393421,4.72909699 L80.4378111,4.72909699 L80.4378111,1.25083612 L80.8393421,1.25083612 L80.8393421,2.18060201 C80.9512438,1.6722408 81.4383467,1.19732442 82.136089,1.19732442 Z M85.591887,1.25083612 L86,1.25083612 L83.9199388,6 L83.5184079,6 L84.117413,4.62876254 L82.6429391,1.25083612 L83.0510525,1.25083612 L84.3214698,4.16053512 L85.591887,1.25083612 Z" id="Shape"></path>
            </g>
        </g>
    </g>
</svg>