<?xml version="1.0" encoding="UTF-8"?>
<svg width="170px" height="187px" viewBox="0 0 170 187" version="1.1" xmlns="http://www.w3.org/2000/svg" xmlns:xlink="http://www.w3.org/1999/xlink">
    <!-- Generator: Sketch 55.2 (78181) - https://sketchapp.com -->
    <title>jails</title>
    <desc>Created with Sketch.</desc>
    <defs>
        <linearGradient x1="0%" y1="0%" x2="100%" y2="0%" id="linearGradient-1">
            <stop stop-color="#2D388A" offset="0%"></stop>
            <stop stop-color="#00AEEF" offset="100%"></stop>
        </linearGradient>
        <linearGradient x1="0%" y1="0%" x2="100%" y2="0%" id="linearGradient-2">
            <stop stop-color="#2D388A" offset="0%"></stop>
            <stop stop-color="#00AEEF" offset="100%"></stop>
        </linearGradient>
        <linearGradient x1="0%" y1="0%" x2="100%" y2="0%" id="linearGradient-3">
            <stop stop-color="#2D388A" offset="0%"></stop>
            <stop stop-color="#00AEEF" offset="100%"></stop>
        </linearGradient>
        <linearGradient x1="0%" y1="0%" x2="100%" y2="0%" id="linearGradient-4">
            <stop stop-color="#2D388A" offset="0%"></stop>
            <stop stop-color="#00AEEF" offset="100%"></stop>
        </linearGradient>
    </defs>
    <g id="Page-1" stroke="none" stroke-width="1" fill="none" fill-rule="evenodd">
        <g id="jails" transform="translate(-105.000000, -227.000000)" fill-rule="nonzero">
            <g id="SvgjsG1008" transform="translate(0.560765, 0.111271)">
                <g id="SvgjsG1009">
                    <g id="Group" transform="translate(154.194727, 226.886526)">
                        <path d="M0.244508781,35.2445089 L8.13267043,43.1877401 L43.1348733,7.94543398 L35.2445088,0.00220278181 L0.244508781,35.2445089 Z M8.13267043,41.6259678 L1.79746995,35.2445089 L35.2445089,1.56397508 L41.5819122,7.94543398 L8.13267043,41.6259678 Z" id="Shape" fill="url(#linearGradient-3)"></path>
                        <path d="M13.800428,48.8951478 L21.6907925,56.8361762 L56.6885898,21.5938701 L48.7982254,13.6506389 L13.800428,48.8951478 Z M21.6907925,55.2744039 L15.3533892,48.8951478 L48.7982254,15.2124112 L55.1356286,21.5938701 L21.6907925,55.2744039 Z" id="Shape" fill="url(#linearGradient-4)"></path>
                        <path d="M70.244509,35.2445089 L62.3563474,27.3034805 L27.3541445,62.5457866 L35.2445089,70.4890178 L70.244509,35.2445089 Z M62.3563474,28.86305 L68.6915479,35.2445089 L35.2445089,68.9272455 L28.9071057,62.5457866 L62.3563474,28.86305 Z" id="Shape" fill="url(#linearGradient-3)"></path>
                    </g>
                </g>
            </g>
            <g id="SvgjsG1010" transform="translate(112.496523, 323.411684)" fill="#000000">
                <path d="M34.7148815,4.17246172 L34.7148815,43.1432542 C34.7148815,58.0806671 27.1210012,63.5883166 17.3574408,63.5883166 C10.7649512,63.5883166 5.25730177,60.5006949 2.50347703,55.6606393 L5.84144641,52.1557715 C8.2614742,56.1613347 12.1835882,58.5813625 17.2739915,58.5813625 C24.5340749,58.5813625 29.541029,54.826147 29.541029,42.726008 L29.541029,4.17246172 L34.7148815,4.17246172 Z M64.5062582,18.4422808 C72.1835877,18.4422808 78.5257296,22.3643948 81.3630035,28.4561889 L81.3630035,19.1933239 L86.4534068,19.1933239 L86.4534068,62.5869258 L81.3630035,62.5869258 L81.3630035,53.3240608 C78.5257296,59.4993041 72.1835877,63.4214181 64.5062582,63.4214181 C54.7426978,63.4214181 42.6425588,55.910987 42.6425588,40.9735741 C42.6425588,26.0361611 54.7426978,18.4422808 64.5062582,18.4422808 L64.5062582,18.4422808 Z M64.9235044,23.0319887 C57.1627256,23.0319887 47.6495128,28.8734351 47.6495128,40.9735741 C47.6495128,52.9902638 57.1627256,58.8317102 64.9235044,58.8317102 C73.0180801,58.8317102 81.6133512,53.1571623 81.6133512,40.9735741 C81.6133512,28.7065366 73.0180801,23.0319887 64.9235044,23.0319887 Z M101.39082,3.58831708 L101.39082,8.34492344 L96.3004165,8.34492344 L96.3004165,3.58831708 L101.39082,3.58831708 Z M101.39082,19.1933239 L101.39082,62.5869258 L96.3004165,62.5869258 L96.3004165,19.1933239 L101.39082,19.1933239 Z M116.328233,3.58831708 L116.328233,62.5869258 L111.237829,62.5869258 L111.237829,3.58831708 L116.328233,3.58831708 Z M147.371348,28.8734351 C145.618914,25.2016688 142.531292,22.6981918 138.025034,22.6981918 C133.184978,22.6981918 130.013907,25.618915 130.013907,29.4575797 C130.013907,32.7955491 131.766341,35.3824754 136.856744,37.1349093 L140.862308,38.5535463 C148.372739,41.2239218 153.463142,44.0611958 153.463142,51.3212791 C153.463142,59.4158549 145.618914,63.4214181 138.609178,63.4214181 C131.265646,63.4214181 124.840055,59.2489564 123.337968,52.0723223 L127.51043,50.904033 C128.929067,56.244784 133.435326,59.1655072 138.609178,59.1655072 C143.365785,59.1655072 148.456188,56.4951317 148.456188,51.4047284 C148.456188,46.8984697 145.285117,44.6453404 140.194714,42.8929065 L135.354658,41.2239218 C128.011126,38.6369955 125.090402,34.3810846 125.090402,29.541029 C125.090402,23.0319887 130.681501,18.4422808 137.941584,18.4422808 C144.617523,18.4422808 149.37413,22.0305979 151.54381,27.5382473 L147.371348,28.8734351 Z" id="Shape"></path>
            </g>
            <g id="SvgjsG1011" transform="translate(104.739762, 401.440490)" fill="#000000">
                <path d="M8.17145082,9.75889827 L7.14351354,7.44278642 L2.14695762,7.44278642 L1.11902034,9.75889827 L0.260237287,9.75889827 L4.33295083,0.650593218 L4.95752032,0.650593218 L9.03023387,9.75889827 L8.17145082,9.75889827 Z M2.4462305,6.74014574 L6.84424066,6.74014574 L4.64523558,1.76961355 L2.4462305,6.74014574 Z M23.3693084,0.650593218 L23.3693084,9.75889827 L22.5495609,9.75889827 L22.5495609,2.45924237 L18.9843101,9.75889827 L18.3467288,9.75889827 L14.7944898,2.45924237 L14.7944898,9.75889827 L13.9747423,9.75889827 L13.9747423,0.650593218 L14.7814779,0.650593218 L18.6720254,8.62686607 L22.5625728,0.650593218 L23.3693084,0.650593218 Z M28.0405677,2.87562202 C29.5759677,2.87562202 31.4756999,4.05970168 31.4756999,6.37581354 C31.4756999,8.71794913 29.5759677,9.88901692 28.0405677,9.88901692 C26.5051677,9.88901692 24.6054355,8.71794913 24.6054355,6.37581354 C24.6054355,4.05970168 26.5051677,2.87562202 28.0405677,2.87562202 L28.0405677,2.87562202 Z M28.0405677,3.59127457 C26.8564881,3.59127457 25.3861474,4.50210507 25.3861474,6.37581354 C25.3861474,8.26253387 26.8564881,9.17336438 28.0405677,9.17336438 C29.2246474,9.17336438 30.694988,8.26253387 30.694988,6.37581354 C30.694988,4.50210507 29.2246474,3.59127457 28.0405677,3.59127457 Z M38.4240355,0.559510168 L39.2177592,0.559510168 L39.2177592,4.77535422 L39.2177592,9.75889827 L38.4240355,9.75889827 L38.4240355,8.31458133 C37.9816321,9.27745929 36.9927304,9.88901692 35.7956389,9.88901692 C34.2732507,9.88901692 32.3865304,8.71794913 32.3865304,6.3888254 C32.3865304,4.05970168 34.2732507,2.87562202 35.7956389,2.87562202 C36.9927304,2.87562202 37.9816321,3.48717965 38.4240355,4.43704575 L38.4240355,0.559510168 L38.4240355,0.559510168 Z M35.8606982,9.17336438 C37.122849,9.17336438 38.4630711,8.2885576 38.4630711,6.3888254 C38.4630711,4.47608134 37.122849,3.59127457 35.8606982,3.59127457 C34.6505948,3.59127457 33.1672423,4.50210507 33.1672423,6.3888254 C33.1672423,8.26253387 34.6505948,9.17336438 35.8606982,9.17336438 Z M43.8760066,2.87562202 C45.4114066,2.87562202 47.4282456,4.05970168 47.2070439,6.68809828 L41.2345982,6.68809828 C41.3777287,8.36662879 42.691927,9.18637624 44.032149,9.18637624 C44.9820151,9.18637624 45.6716439,8.91312709 46.1921185,8.34060506 L46.6735575,8.76999658 C46.0619999,9.53769658 45.1641812,9.88901692 44.0191372,9.88901692 C42.2755473,9.88901692 40.4408744,8.70493726 40.4408744,6.37581354 C40.4408744,4.05970168 42.3406066,2.87562202 43.8760066,2.87562202 Z M43.8760066,3.5782627 C42.7569863,3.5782627 41.3907405,4.39801016 41.2345982,6.05051693 L46.5044032,6.05051693 C46.4133202,4.39801016 44.995027,3.5782627 43.8760066,3.5782627 L43.8760066,3.5782627 Z M51.8132439,2.88863389 C51.9173388,2.88863389 52.0084219,2.88863389 52.0995049,2.90164575 L52.0995049,3.65633389 C51.99541,3.63031016 51.904327,3.63031016 51.8262558,3.63031016 C50.5250693,3.63031016 49.4580965,4.56716439 49.2499066,6.16762371 L49.2499066,9.75889827 L48.4561829,9.75889827 L48.4561829,2.9927288 L49.2499066,2.9927288 L49.2499066,4.80137795 C49.4711083,3.81247626 50.4339863,2.88863389 51.8132439,2.88863389 Z M56.5755863,2.88863389 C57.9027964,2.88863389 59.1649473,3.73440507 59.1649473,5.81630337 L59.1649473,9.75889827 L58.3842354,9.75889827 L58.3842354,5.81630337 C58.3842354,4.29391524 57.5254524,3.60428643 56.4324558,3.60428643 C55.1442812,3.60428643 54.2204388,4.77535422 54.0512846,5.69919659 L54.0512846,9.75889827 L53.2575609,9.75889827 L53.2575609,2.9927288 L54.0512846,2.9927288 L54.0512846,4.67125931 C54.1814032,4.1637966 55.0401863,2.88863389 56.5755863,2.88863389 Z M69.0669761,0.650593218 L69.0669761,6.72713388 C69.0669761,9.0562576 67.8828964,9.91504065 66.3605083,9.91504065 C65.332571,9.91504065 64.4737879,9.43360167 64.0443964,8.67891353 L64.564871,8.13241523 C64.9422151,8.75698472 65.5537727,9.13432878 66.3474964,9.13432878 C67.4795286,9.13432878 68.2602405,8.54879489 68.2602405,6.66207456 L68.2602405,0.650593218 L69.0669761,0.650593218 L69.0669761,0.650593218 Z M73.7122116,2.87562202 C74.9093032,2.87562202 75.8982048,3.48717965 76.3406082,4.43704575 L76.3406082,2.9927288 L77.134332,2.9927288 L77.134332,9.75889827 L76.3406082,9.75889827 L76.3406082,8.31458133 C75.8982048,9.27745929 74.9093032,9.88901692 73.7122116,9.88901692 C72.1898235,9.88901692 70.3031032,8.71794913 70.3031032,6.3888254 C70.3031032,4.05970168 72.1898235,2.87562202 73.7122116,2.87562202 L73.7122116,2.87562202 Z M73.777271,3.59127457 C72.5671676,3.59127457 71.083815,4.50210507 71.083815,6.3888254 C71.083815,8.26253387 72.5671676,9.17336438 73.777271,9.17336438 C75.0394218,9.17336438 76.3796438,8.2885576 76.3796438,6.3888254 C76.3796438,4.47608134 75.0394218,3.59127457 73.777271,3.59127457 Z M84.8633794,2.9927288 L81.8446269,9.75889827 L81.2330692,9.75889827 L78.2273286,2.9927288 L79.0340642,2.9927288 L81.545354,8.6528898 L84.0566438,2.9927288 L84.8633794,2.9927288 Z M89.0531997,2.87562202 C90.2502912,2.87562202 91.2391929,3.48717965 91.6815963,4.43704575 L91.6815963,2.9927288 L92.47532,2.9927288 L92.47532,9.75889827 L91.6815963,9.75889827 L91.6815963,8.31458133 C91.2391929,9.27745929 90.2502912,9.88901692 89.0531997,9.88901692 C87.5308116,9.88901692 85.6440913,8.71794913 85.6440913,6.3888254 C85.6440913,4.05970168 87.5308116,2.87562202 89.0531997,2.87562202 L89.0531997,2.87562202 Z M89.118259,3.59127457 C87.9081557,3.59127457 86.4248031,4.50210507 86.4248031,6.3888254 C86.4248031,8.26253387 87.9081557,9.17336438 89.118259,9.17336438 C90.3804099,9.17336438 91.7206319,8.2885576 91.7206319,6.3888254 C91.7206319,4.47608134 90.3804099,3.59127457 89.118259,3.59127457 Z M97.3157336,4.50210507 C97.0424844,3.92958304 96.5610455,3.53922711 95.8584048,3.53922711 C95.1037167,3.53922711 94.6092658,3.99464236 94.6092658,4.59318812 C94.6092658,5.1136627 94.882515,5.51703049 95.6762387,5.79027964 L96.3008082,6.01148134 C97.471876,6.427861 98.2655997,6.87026439 98.2655997,8.00229659 C98.2655997,9.26444743 97.0424844,9.88901692 95.9494878,9.88901692 C94.8044438,9.88901692 93.8025302,9.2384237 93.5683167,8.11940336 L94.2189099,7.93723726 C94.4401116,8.76999658 95.1427522,9.22541184 95.9494878,9.22541184 C96.6911641,9.22541184 97.4848878,8.80903218 97.4848878,8.01530845 C97.4848878,7.31266777 96.990437,6.96134744 96.1967133,6.68809828 L95.4420251,6.427861 C94.2969811,6.0244932 93.8415658,5.36088812 93.8415658,4.60619999 C93.8415658,3.59127457 94.7133607,2.87562202 95.8453929,2.87562202 C96.8863421,2.87562202 97.6280183,3.43513219 97.9663268,4.29391524 L97.3157336,4.50210507 Z M102.572527,2.87562202 C103.78263,2.87562202 104.862615,3.44814406 105.435137,4.54114066 L104.784544,4.80137795 C104.329128,4.02066609 103.522393,3.59127457 102.572527,3.59127457 C101.362423,3.59127457 99.8920827,4.50210507 99.8920827,6.3888254 C99.8920827,8.26253387 101.362423,9.17336438 102.572527,9.17336438 C103.522393,9.17336438 104.329128,8.74397285 104.784544,7.96326099 L105.435137,8.22349828 C104.862615,9.31649489 103.78263,9.88901692 102.572527,9.88901692 C101.011103,9.88901692 99.1113709,8.71794913 99.1113709,6.3888254 C99.1113709,4.05970168 101.011103,2.87562202 102.572527,2.87562202 Z M109.950254,2.88863389 C110.054349,2.88863389 110.145432,2.88863389 110.236515,2.90164575 L110.236515,3.65633389 C110.13242,3.63031016 110.041337,3.63031016 109.963266,3.63031016 C108.662079,3.63031016 107.595106,4.56716439 107.386917,6.16762371 L107.386917,9.75889827 L106.593193,9.75889827 L106.593193,2.9927288 L107.386917,2.9927288 L107.386917,4.80137795 C107.608118,3.81247626 108.570996,2.88863389 109.950254,2.88863389 Z M112.188295,0.559510168 L112.188295,1.30118644 L111.394571,1.30118644 L111.394571,0.559510168 L112.188295,0.559510168 Z M112.188295,2.9927288 L112.188295,9.75889827 L111.394571,9.75889827 L111.394571,2.9927288 L112.188295,2.9927288 Z M117.145815,2.87562202 C118.668203,2.87562202 120.554923,4.05970168 120.554923,6.3888254 C120.554923,8.71794913 118.668203,9.88901692 117.145815,9.88901692 C115.948723,9.88901692 114.959822,9.27745929 114.517418,8.31458133 L114.517418,12.2311525 L113.723695,12.2311525 L113.723695,7.91121353 L113.723695,2.9927288 L114.517418,2.9927288 L114.517418,4.43704575 C114.959822,3.48717965 115.948723,2.87562202 117.145815,2.87562202 Z M117.080756,9.17336438 C118.290859,9.17336438 119.774211,8.26253387 119.774211,6.3888254 C119.774211,4.50210507 118.290859,3.59127457 117.080756,3.59127457 C115.818605,3.59127457 114.478383,4.47608134 114.478383,6.3888254 C114.478383,8.2885576 115.818605,9.17336438 117.080756,9.17336438 Z M124.536554,3.66934575 L123.118261,3.66934575 L123.118261,8.49674743 C123.118261,8.91312709 123.300427,9.13432878 123.651747,9.13432878 C123.990056,9.13432878 124.237281,9.04324573 124.523542,8.90011523 L124.523542,9.58974404 C124.237281,9.74588641 123.938008,9.83696946 123.443557,9.83696946 C122.871035,9.83696946 122.324537,9.53769658 122.324537,8.60084235 L122.324537,3.66934575 L121.400695,3.66934575 L121.400695,2.9927288 L122.324537,2.9927288 L122.324537,1.40528135 L123.118261,1.40528135 L123.118261,2.9927288 L124.536554,2.9927288 L124.536554,3.66934575 Z M130.482976,8.99119828 L134.737856,8.99119828 L134.737856,9.75889827 L129.67624,9.75889827 L129.67624,0.650593218 L130.482976,0.650593218 L130.482976,8.99119828 Z M136.819754,0.559510168 L136.819754,1.30118644 L136.02603,1.30118644 L136.02603,0.559510168 L136.819754,0.559510168 Z M136.819754,2.9927288 L136.819754,9.75889827 L136.02603,9.75889827 L136.02603,2.9927288 L136.819754,2.9927288 Z M141.777274,2.87562202 C143.299662,2.87562202 145.186383,4.05970168 145.186383,6.3888254 C145.186383,8.71794913 143.299662,9.88901692 141.777274,9.88901692 C140.580183,9.88901692 139.591281,9.27745929 139.148878,8.31458133 L139.148878,9.75889827 L138.355154,9.75889827 L138.355154,2.9927288 L138.355154,0.559510168 L139.148878,0.559510168 L139.148878,4.43704575 C139.591281,3.48717965 140.580183,2.87562202 141.777274,2.87562202 Z M141.712215,9.17336438 C142.922318,9.17336438 144.405671,8.26253387 144.405671,6.3888254 C144.405671,4.50210507 142.922318,3.59127457 141.712215,3.59127457 C140.450064,3.59127457 139.109842,4.47608134 139.109842,6.3888254 C139.109842,8.2885576 140.450064,9.17336438 141.712215,9.17336438 Z M149.766559,2.88863389 C149.870654,2.88863389 149.961737,2.88863389 150.05282,2.90164575 L150.05282,3.65633389 C149.948725,3.63031016 149.857642,3.63031016 149.779571,3.63031016 C148.478384,3.63031016 147.411411,4.56716439 147.203222,6.16762371 L147.203222,9.75889827 L146.409498,9.75889827 L146.409498,2.9927288 L147.203222,2.9927288 L147.203222,4.80137795 C147.424423,3.81247626 148.387301,2.88863389 149.766559,2.88863389 Z M154.3077,2.87562202 C155.504791,2.87562202 156.493693,3.48717965 156.936096,4.43704575 L156.936096,2.9927288 L157.72982,2.9927288 L157.72982,9.75889827 L156.936096,9.75889827 L156.936096,8.31458133 C156.493693,9.27745929 155.504791,9.88901692 154.3077,9.88901692 C152.785311,9.88901692 150.898591,8.71794913 150.898591,6.3888254 C150.898591,4.05970168 152.785311,2.87562202 154.3077,2.87562202 L154.3077,2.87562202 Z M154.372759,3.59127457 C153.162655,3.59127457 151.679303,4.50210507 151.679303,6.3888254 C151.679303,8.26253387 153.162655,9.17336438 154.372759,9.17336438 C155.63491,9.17336438 156.975132,8.2885576 156.975132,6.3888254 C156.975132,4.47608134 155.63491,3.59127457 154.372759,3.59127457 Z M162.622281,2.88863389 C162.726376,2.88863389 162.817459,2.88863389 162.908542,2.90164575 L162.908542,3.65633389 C162.804447,3.63031016 162.713364,3.63031016 162.635293,3.63031016 C161.334106,3.63031016 160.267133,4.56716439 160.058944,6.16762371 L160.058944,9.75889827 L159.26522,9.75889827 L159.26522,2.9927288 L160.058944,2.9927288 L160.058944,4.80137795 C160.280145,3.81247626 161.243023,2.88863389 162.622281,2.88863389 Z M169.45351,2.9927288 L170.260245,2.9927288 L166.148496,12.2311525 L165.354772,12.2311525 L166.538852,9.56372031 L163.624194,2.9927288 L164.43093,2.9927288 L166.94222,8.6528898 L169.45351,2.9927288 Z" id="Shape"></path>
            </g>
        </g>
    </g>
</svg>